P3
10 10
255
221 235 255
221 236 255
221 236 255
220 235 255
220 235 255
128 151 181
220 235 255
220 235 255
221 236 255
221 236 255
223 236 255
222 236 255
222 236 255
114 95 80
94 72 57
57 75 67
162 171 181
152 166 181
153 166 181
174 177 181
133 154 181
223 237 255
15 21 3
135 155 181
103 180 61
176 178 181
164 172 181
160 170 181
162 171 181
159 169 181
134 154 181
53 22 35
136 104 80
211 230 255
220 235 255
12 80 118
173 176 181
174 177 181
175 177 181
180 179 181
159 214 244
61 61 43
27 15 9
200 224 255
190 219 255
115 121 127
112 119 127
32 46 51
112 119 127
33 73 61
21 69 102
135 155 181
34 70 101
136 155 181
133 161 43
93 92 90
7 2 4
111 119 127
109 118 127
113 120 127
14 48 72
132 153 181
130 152 181
61 62 44
132 153 181
58 22 51
43 23 82
89 190 75
62 53 45
63 64 63
28 177 89
26 171 89
142 159 181
94 15 127
88 14 127
77 140 205
48 93 145
77 36 121
109 118 127
131 153 181
129 152 181
47 116 22
137 156 181
101 15 127
77 6 62
35 67 102
172 122 156
0 0 4
129 152 181
138 157 181
128 151 181
9 45 1
136 155 181
118 117 151
46 7 63
174 123 156
38 18 31
137 156 181
131 153 181
134 154 181
